<?xml version="1.0" encoding="UTF-8"?>
<svg id="Layer_2" data-name="Layer 2" xmlns="http://www.w3.org/2000/svg" viewBox="0 0 180.38 95.16">
  <defs>
    <style>
      .cls-1 {
        fill: #231f20;
      }
    </style>
  </defs>
  <g id="Layer_1-2" data-name="Layer 1">
    <path class="cls-1" d="M42.97,83.92C21.17,83.92,0,67.79,0,41.83S21.17,0,42.97,0s42.97,16.13,42.97,41.83-21.17,42.09-42.97,42.09ZM42.97,14.11c-13.48,0-26.84,10.58-26.84,27.97s13.36,28.1,26.84,28.1,26.84-10.58,26.84-28.1-13.61-27.97-26.84-27.97Z"/>
    <path class="cls-1" d="M94.46,30.13v12.2c.1,15.25,7.53,27.08,18.07,34.19l-5.57,9.64,8.74,5.05,5.8-10.05c3.48,1.32,7.14,2.2,10.86,2.63v11.35h10.1v-11.35c3.72-.43,7.38-1.31,10.86-2.63l5.8,10.05,8.74-5.05-5.57-9.64c10.54-7.12,17.97-18.94,18.07-34.19v-12.2h-85.92ZM137.42,70.37c-13.47,0-26.81-10.56-26.84-28.04h53.68c-.03,17.48-13.62,28.04-26.84,28.04Z"/>
    <path class="cls-1" d="M51.17,41.96c-9.32,0-16.88,7.56-16.88,16.88s7.56,16.88,16.88,16.88,16.88-7.56,16.88-16.88-7.56-16.88-16.88-16.88ZM58.63,56.36c-1.87,0-3.39-1.52-3.39-3.39s1.52-3.39,3.39-3.39,3.39,1.52,3.39,3.39-1.52,3.39-3.39,3.39Z"/>
  </g>
</svg>